<svg transform="scale(1)" version="1.1" id="ku4fjCAtHh" xmlns="http://www.w3.org/2000/svg" xmlns:xlink="http://www.w3.org/1999/xlink" x="0px" y="0px" width="500px" height="500px" viewBox="0 0 500 500" xml:space="preserve" class="pbimage_pbimage__wrapper__image__0LEis false"><title>Mountain 1</title><style type="text/css"> .st0{fill:#FFDC32;} .st1{fill:#005596;} .st2{fill:#FFB0CC;} .st3{fill:#000001;}
 .st3{fill:#098f15;}
 .st2{fill:#FFB0CC;}
 .st1{fill:#123855;}
 .st0{fill:#FFDC32;}</style><g id="cloud"><circle class="st0" cx="255.44" cy="183.84" r="29.6" fill="#FFDC32"></circle><path class="st0" d="M353.21,95.42l-79.62,45.29c0,0,18.56-18.56,17.94-18.53c3.5-2.45,6.32-5.86,8.08-9.76
		c2.21-4.9,2.97-10.82,7.09-14.27c1.5-1.26,3.91-2,5.33-0.65c1.84,1.74,0.78,5.77,3.19,6.55c0.56,0.18,1.17,0.1,1.75,0.01
		c1.36-0.21,2.77-0.49,3.86-1.33c1.18-0.9,1.84-2.33,2.39-3.71c1.47-3.65,2.6-7.47,4.61-10.86c2-3.39,5.08-6.39,8.94-7.18
		c1.8-0.37,3.98-0.07,4.96,1.49c0.81,1.29,0.52,2.95,0.2,4.43c-0.59,2.75-1.18,5.51-1.77,8.26c-0.12,0.56-0.22,1.21,0.15,1.66
		c0.48,0.57,1.4,0.4,2.05,0.03c1.09-0.62,1.93-1.63,3.01-2.27c1.08-0.64,2.66-0.8,3.46,0.18c0.24,0.29,0.39,0.67,0.71,0.86
		C350.44,96.19,351.91,94.95,353.21,95.42z" fill="#FFDC32"></path><path class="st0" d="M423.82,124.45l-103.83,37.81c0,0,13.36-8.12,13.28-7.89c2.81-1.56,4.65-4.74,4.61-7.95
		c-0.01-0.74-0.1-1.51,0.23-2.17c0.46-0.92,1.59-1.29,2.62-1.31s2.06,0.21,3.07,0.08c2.79-0.34,4.53-3.09,5.91-5.53
		c8.39-14.8,18.82-29.21,33.7-37.46c2.94-1.63,6.46-3.02,9.58-1.76c3.21,1.29,4.78,4.95,5.32,8.36c0.43,2.72,0.42,5.52-0.04,8.23
		c-0.33,1.95-0.77,4.29,0.67,5.64c1.2,1.12,3.12,0.92,4.65,0.32c1.53-0.6,2.98-1.52,4.62-1.65s3.55,1.01,3.43,2.65
		c-0.04,0.52-0.24,1.14,0.13,1.5c0.22,0.22,0.56,0.24,0.87,0.24C416.03,123.6,419.82,122.63,423.82,124.45z" fill="#FFDC32"></path><path class="st0" d="M185.45,112.01l45.78,35.73c0,0-6.18-7.3-6.11-7.44c-1.23-0.72-1.14-2.49-0.99-3.9
		c0.15-1.42-0.07-3.27-1.45-3.63c-0.81-0.21-1.87,0.15-2.36-0.53c-0.29-0.41-0.18-0.99-0.45-1.41c-0.31-0.47-0.98-0.55-1.42-0.9
		c-0.58-0.46-0.68-1.29-0.71-2.03c-0.32-7,1-14.12-0.52-20.96c-0.47-2.13-1.27-4.28-2.82-5.81s-4.02-2.3-6-1.37
		c-1.79,0.84-2.78,2.82-3.15,4.76c-0.37,1.94-0.25,3.94-0.51,5.9c-0.1,0.73-0.38,1.6-1.1,1.77c-1.06,0.25-2.09-1.27-3.06-0.77
		c-0.44,0.23-0.59,0.77-0.88,1.18c-1.04,1.47-3.35,0.78-4.84-0.22c-2.64-1.75-5.01-4.05-8.03-5.03c-0.63-0.2-1.34-0.34-1.93-0.04
		c-0.71,0.36-1,1.27-0.88,2.06C184.14,110.17,184.59,110.87,185.45,112.01z" fill="#FFDC32"></path><path class="st0" d="M88.02,121.09l108.7,43.84l-5-5.41c0,0,0.2,0.2,0.04,0.22c0.95-2.06-1.63-4.67-3.7-3.74
		c0.01-2.84-3.08-4.65-5.86-5.25c-2.78-0.6-5.89-0.72-7.98-2.65c-3.39-3.13-2.26-9.36-5.81-12.32c-1.98-1.65-4.93-1.79-6.82-3.53
		c-1.21-1.11-1.81-2.71-2.27-4.29c-1.42-4.87-1.81-9.98-2.64-14.99c-0.83-5.01-2.18-10.09-5.23-14.15
		c-3.05-4.06-8.12-6.91-13.14-6.13c-4.68,0.73-8.46,4.47-10.43,8.77c-1.96,4.31-2.39,9.14-2.56,13.87c-0.06,1.56-0.1,3.16-0.71,4.59
		c-0.61,1.43-1.94,2.68-3.5,2.69c-2.51,0.02-3.9-2.8-5.78-4.47c-2.07-1.85-5.25-2.35-7.79-1.23c-1.72,0.76-3.67,2.19-5.23,1.14
		c-0.51-0.35-0.84-0.9-1.31-1.3c-1.14-0.96-3.1-0.64-3.89,0.63c-0.29,0.48-0.44,1.06-0.85,1.44c-0.95,0.91-2.47,0.21-3.73-0.16
		S89.34,119.07,88.02,121.09z" fill="#FFDC32"></path><path class="st0" d="M60.66,208.35l174.45,20.62c0,0-15.98-4.76-16.53-4.81c-2.4,0.54-5.09-0.92-5.95-3.22
		c-0.53-1.41-0.63-3.28-2.03-3.84c-1.15-0.46-2.59,0.32-3.64-0.34c-0.97-0.6-0.97-1.98-0.85-3.1c0.46-4.12,1.1-8.43-0.35-12.32
		c-1.45-3.89-5.88-7.03-9.72-5.46c-1.95,0.8-3.29,2.58-4.53,4.28c-1.89,2.59-3.82,5.21-6.37,7.14s-5.88,3.1-8.99,2.36
		c-5.59-1.32-8.09-7.64-10.21-12.98c-1.56-3.94-3.38-7.77-5.44-11.48c-1.17-2.11-2.45-4.22-4.31-5.76s-4.39-2.45-6.72-1.8
		c-3.66,1.01-5.38,5.33-5.37,9.13c0.01,3.8,1.2,7.55,0.98,11.34c-0.13,2.19-1.52,4.9-3.68,4.47c-1.3-0.26-2.08-1.57-3.21-2.26
		c-3.29-2.02-7.55,1.88-11.26,0.8c-4.33-1.26-5.4-8.47-9.91-8.52c-1.99-0.02-3.74,1.53-5.72,1.5c-2.7-0.03-4.52-2.92-4.89-5.6
		c-0.37-2.68,0.16-5.45-0.45-8.08c-1.21-5.21-7.13-8.62-12.38-7.59c-5.25,1.03-9.32,5.92-9.98,11.23c-0.6,4.82,1.24,9.6,1.41,14.46
		c0.05,1.36-0.35,3.1-1.69,3.31c-0.81,0.13-1.55-0.4-2.22-0.87c-1.24-0.88-2.63-1.68-4.14-1.72c-1.52-0.04-3.16,0.93-3.38,2.43
		c-0.11,0.75,0.13,1.53-0.09,2.25c-0.23,0.74-0.89,1.26-1.56,1.66C69.35,207.12,66.1,207.48,60.66,208.35z" fill="#FFDC32"></path><path class="st0" d="M202.6,253.29l48.13,3.48c0,0-6.87-3.28-7.1-3.18c-0.67-0.41-1.33-0.82-2-1.23c0.65-1.4-0.11-3.27-1.55-3.83
		c-1.48-0.57-3.13,0.17-4.45,1.04s-2.65,1.93-4.23,2.05c-0.42,0.03-0.85-0.01-1.22-0.2c-0.89-0.47-1.13-1.6-1.38-2.57
		c-0.84-3.23-3.12-6.24-6.31-7.21c-0.83-0.25-1.79-0.34-2.5,0.15c-0.53,0.38-0.81,1.01-1.18,1.56c-0.81,1.19-2.11,1.94-3.36,2.65
		c-0.8,0.46-1.64,0.92-2.57,0.98c-2.22,0.15-3.88-1.98-5.97-2.76c-2.1-0.78-4.69,0.02-5.98,1.86S199.77,250.61,202.6,253.29z" fill="#FFDC32"></path></g><g id="mountain"><g id="colors"><polygon class="st1" points="230.79,333.53 244.76,308.48 256.33,305.11 261.14,219.12 278.73,186.84 279.93,107.83 
			292.94,100.37 300.17,110.72 306.43,112.17 309.56,169.74 321.12,183.95 327.38,234.78 346.41,179.61 348.1,109.28 359.74,92.4 
			378.2,96.32 385.25,222.33 397.44,251.6 394.95,270.69 378.62,280.21 337.67,332.95 282.91,367.61 275.18,387.64 256.99,383 
			245.81,354.95 231.19,345.68 		"></polygon><polygon class="st2" points="280.11,115.48 293.1,201.77 263.26,215.62 278.7,186.72 		"></polygon><polygon class="st2" points="261.26,219.01 274.3,229.41 273.62,290.28 285.83,299.09 261.74,379.45 259.45,378.55 251.35,351.46 
			232.66,341.77 230.76,333.87 244.75,308.19 256.45,305.09 		"></polygon><polygon class="st2" points="348.38,109.44 354.34,192.73 365.08,210.61 327.93,234.56 346.28,179.42 		"></polygon><polyline class="st1" points="40.85,413.75 53.51,362.65 63.62,362.71 72.05,287.55 101.61,284.09 119.97,158.69 126.54,158.02 
			130.83,173.84 137.67,174.51 151.26,271.99 158.65,276.95 155.85,198.41 167.43,192.43 167.68,158.31 188.69,169.39 
			188.18,212.92 199.63,215.85 207.02,300.88 220.06,303.29 232.83,341.61 251.4,351.88 259.5,378.68 274.21,384.98 282.86,366.67 
			337.23,332.62 351.18,245.89 375.75,251.16 378.6,279.86 394.48,270.25 415.58,138.96 427.04,136.53 430.16,158.41 442.04,166.19 
			461.36,393.4 412.21,413.66 250.43,415.84 94.76,411.49 47.72,415.04 		"></polyline><polygon class="st2" points="124.53,158.05 124.61,176.79 131.04,174.06 126.65,158.12 		"></polygon><polygon class="st2" points="137.33,175.12 131.63,190.51 133.99,266.15 137.33,266.69 139.81,255.28 144.22,257.76 
			144.97,289.82 158.64,277.34 151.1,271.75 		"></polygon><polygon class="st2" points="104.76,291.41 114.19,304.44 102.01,327.56 		"></polygon><polyline class="st2" points="188.65,169.54 182.99,189.55 168.09,196.66 175.43,201.2 176.81,225.21 185.93,234.13 
			199.86,216.09 188.3,212.89 		"></polyline><polygon class="st2" points="178.98,262.27 193.75,280.32 196.82,292.29 186.82,293.76 186.12,285.01 179.82,283.12 		"></polygon><polygon class="st2" points="206.78,300.91 198.53,319.14 206.92,330.86 215.93,320.88 226.32,322.82 220.22,303.34 		"></polygon><polygon class="st2" points="212.54,329.31 216.03,364.29 252.88,374.36 227.04,357.04 		"></polygon><polygon class="st2" points="140.3,304.33 137.38,320.96 143.6,325.33 152.06,326.94 153.03,297.87 		"></polygon><polygon class="st2" points="119.46,320.89 119.51,332.49 127.91,331.69 		"></polygon><polygon class="st2" points="351.6,247.4 361.48,278.62 356.31,280.53 351.32,327.2 334.54,343.76 283.27,366.58 337.51,332.5 		
			"></polygon><polygon class="st2" points="364.23,309.96 369.51,344.36 376.52,358.87 378.91,314.99 383.69,305.67 		"></polygon><polygon class="st2" points="395.03,270.17 413.08,257.04 409.06,242.85 415.29,193.39 412.59,193.97 406.52,230.47 
			400.69,233.09 		"></polygon><polygon class="st2" points="426.8,181.5 433.44,172.48 432.87,166.93 426.74,165.78 		"></polygon><polygon class="st2" points="282.32,395.8 300.86,392.03 314.92,381.22 314.41,378.09 286.98,380.77 		"></polygon><polygon class="st2" points="407.55,192.41 418.23,180.38 411.06,169.94 		"></polygon><polygon class="st3" points="38.36,419.14 461.53,419.14 461.64,392.67 433.52,392.51 433.52,368.91 445.71,362.77 445.71,344.39 
			438.52,344.39 438.52,357.2 433.37,357.2 433.37,335.47 425.47,335.47 425.47,366.76 420.11,366.76 420.11,355.26 411.77,355.26 
			411.77,374.11 425.15,374.11 425.15,393.06 410.73,395.85 401.62,408.76 383.33,408.76 383.33,402.47 349.05,402.47 
			349.05,384.83 362.75,378.87 362.75,357.37 355.05,357.37 355.05,373.32 348.7,375.87 348.7,341.21 339.75,341.21 339.75,368.17 
			333.75,365.52 333.75,349.92 326.14,349.92 326.14,371.82 339.55,377.92 339.55,400.93 323.59,392.28 298.84,399.68 
			291.53,412.98 251.32,406.93 258.07,400.23 246.2,399.74 251.74,386.47 240.77,394.25 237.43,378.19 231.99,392.1 223.01,381.88 
			225.41,396.99 217.67,393.55 223.31,402.13 215.03,398.69 212.64,392.7 184.03,392.7 184.03,368.71 195.9,362.73 195.9,344.02 
			188.87,344.02 188.87,356.99 183.88,356.99 183.88,335.67 175.43,335.67 175.43,367.06 170.3,367.06 170.3,355.36 162.3,355.36 
			162.3,374.02 175.14,374.02 175.14,393.12 160.7,395.95 151.63,408.63 133.59,408.63 133.59,402.31 99.3,402.31 99.3,384.98 
			112.93,379.02 112.93,357.12 105.56,357.12 105.56,373.26 99.05,375.66 99.05,341.27 90.16,341.27 90.16,368.23 83.95,365.76 
			83.95,350.04 76.07,350.04 76.07,371.73 89.67,378.13 89.67,400.46 73.77,392.4 48.74,399.45 		"></polygon></g><g id="line"><path class="st3" d="M40.85,414.25c-0.04,0-0.08,0-0.12-0.01c-0.27-0.07-0.43-0.34-0.37-0.61l12.67-51.1
			c0.06-0.22,0.26-0.38,0.49-0.38c0,0,0,0,0,0l9.66,0.06l8.38-74.72c0.03-0.23,0.21-0.41,0.44-0.44l29.18-3.41l18.31-125.02
			c0.03-0.23,0.22-0.4,0.44-0.43l6.57-0.67c0.24-0.02,0.47,0.13,0.53,0.37l4.2,15.49l6.5,0.64c0.23,0.02,0.41,0.2,0.45,0.43
			l13.56,97.25l6.38,4.29l-2.77-77.56c-0.01-0.19,0.1-0.37,0.27-0.46l11.32-5.84l0.25-33.81c0-0.17,0.09-0.34,0.24-0.43
			c0.15-0.09,0.33-0.09,0.49-0.01l21,11.07c0.17,0.09,0.27,0.26,0.27,0.45l-0.5,43.14l11.08,2.83c0.21,0.05,0.36,0.23,0.37,0.44
			l7.35,84.65l12.67,2.34c0.18,0.03,0.33,0.16,0.38,0.33l12.71,38.13l18.4,10.18c0.11,0.06,0.2,0.17,0.24,0.29L269,408.36
			c0.08,0.26-0.07,0.54-0.33,0.62c-0.26,0.08-0.54-0.07-0.62-0.33l-17.06-56.43l-18.39-10.17c-0.11-0.06-0.19-0.16-0.23-0.28
			l-12.68-38.04l-12.75-2.36c-0.22-0.04-0.39-0.22-0.41-0.45l-7.35-84.68l-11.11-2.84c-0.22-0.06-0.38-0.26-0.38-0.49l0.51-43.23
			l-20.01-10.55l-0.25,33.29c0,0.19-0.11,0.35-0.27,0.44l-11.3,5.84l2.79,78.22c0.01,0.19-0.09,0.36-0.26,0.46
			c-0.16,0.09-0.37,0.08-0.52-0.02l-7.38-4.96c-0.12-0.08-0.2-0.21-0.22-0.35l-13.54-97.08l-6.45-0.63
			c-0.21-0.02-0.38-0.17-0.43-0.37l-4.18-15.41l-5.76,0.59L102.1,284.16c-0.03,0.22-0.21,0.4-0.44,0.42L72.5,288l-8.38,74.77
			c-0.03,0.25-0.24,0.44-0.5,0.44c0,0,0,0,0,0l-9.72-0.06l-12.57,50.72C41.28,414.1,41.07,414.25,40.85,414.25z"></path><path class="st3" d="M461.03,392.02c-0.26,0-0.48-0.2-0.5-0.46L441.59,166.8l-11.61-7.83c-0.12-0.08-0.2-0.2-0.22-0.34
			l-3.08-21.45l-10.54,2.16l-20.93,130.95c-0.02,0.15-0.11,0.27-0.24,0.35l-16.08,9.7c-0.15,0.09-0.33,0.1-0.48,0.02
			c-0.15-0.08-0.26-0.23-0.27-0.4l-2.74-28.46l-23.96-4.89l-13.81,86.07c-0.02,0.14-0.11,0.27-0.23,0.34l-54.13,34.21l-8.49,18.12
			c-0.12,0.25-0.41,0.36-0.66,0.24l-14.68-6.63c-0.25-0.11-0.36-0.41-0.25-0.66c0.11-0.25,0.41-0.36,0.66-0.25l14.23,6.42l8.34-17.8
			c0.04-0.09,0.11-0.16,0.19-0.21l54.06-34.17l13.85-86.37c0.02-0.13,0.1-0.25,0.21-0.33c0.11-0.08,0.25-0.11,0.38-0.08l24.83,5.07
			c0.22,0.04,0.38,0.22,0.4,0.44l2.7,28.04l15.2-9.17l20.94-131.06c0.03-0.21,0.19-0.37,0.39-0.41l11.4-2.34
			c0.14-0.03,0.28,0,0.39,0.08c0.11,0.08,0.19,0.2,0.21,0.34l3.13,21.76l11.63,7.84c0.13,0.08,0.21,0.22,0.22,0.37l18.96,225
			c0.02,0.28-0.18,0.52-0.46,0.54C461.06,392.02,461.05,392.02,461.03,392.02z"></path><path class="st3" d="M230.79,334.03c-0.08,0-0.17-0.02-0.24-0.06c-0.24-0.13-0.33-0.44-0.19-0.68l13.97-25.05
			c0.06-0.12,0.17-0.2,0.3-0.24l11.22-3.27l4.8-85.64c0-0.07,0.02-0.15,0.06-0.21l17.53-32.17l1.2-78.88c0-0.18,0.1-0.34,0.25-0.43
			l13.01-7.47c0.22-0.13,0.51-0.07,0.66,0.15l7.12,10.2l6.08,1.4c0.22,0.05,0.38,0.24,0.39,0.46l3.12,57.41l11.46,14.09
			c0.06,0.07,0.1,0.16,0.11,0.25l6,48.68l18.3-53.04l1.68-70.26c0-0.1,0.03-0.19,0.09-0.27l11.64-16.88
			c0.11-0.17,0.32-0.25,0.52-0.21l18.46,3.92c0.22,0.05,0.38,0.24,0.4,0.46l7.05,125.93l12.15,29.19c0.11,0.25-0.01,0.55-0.27,0.65
			c-0.25,0.1-0.55-0.01-0.65-0.27l-12.19-29.27c-0.02-0.05-0.03-0.11-0.04-0.16l-7.03-125.63l-17.76-3.77l-11.37,16.48l-1.68,70.19
			c0,0.05-0.01,0.1-0.03,0.15l-19.03,55.16c-0.08,0.22-0.29,0.36-0.53,0.33c-0.23-0.02-0.42-0.21-0.44-0.44l-6.25-50.68l-11.47-14.1
			c-0.07-0.08-0.11-0.18-0.11-0.29l-3.11-57.19l-5.9-1.36c-0.12-0.03-0.23-0.1-0.3-0.2l-6.96-9.98l-12.36,7.1l-1.2,78.72
			c0,0.08-0.02,0.16-0.06,0.23l-17.53,32.18l-4.81,85.88c-0.01,0.21-0.16,0.39-0.36,0.45l-11.36,3.31l-13.87,24.87
			C231.14,333.94,230.97,334.03,230.79,334.03z"></path><path class="st3" d="M101.37,336.14c-0.01,0-0.02,0-0.04,0c-0.28-0.02-0.48-0.26-0.46-0.53l3-43.01l-10.1,1.11l-2.35,10.83
			c-0.05,0.22-0.24,0.38-0.47,0.39l-11.01,0.47l-4.07,25.35c-0.04,0.27-0.3,0.45-0.57,0.42c-0.27-0.04-0.46-0.3-0.41-0.57
			l4.13-25.75c0.04-0.23,0.23-0.41,0.47-0.42l11.03-0.47l2.35-10.8c0.05-0.21,0.22-0.37,0.43-0.39l11.05-1.21
			c0.15-0.02,0.29,0.03,0.4,0.14c0.11,0.1,0.16,0.25,0.15,0.4l-3.04,43.61C101.85,335.94,101.63,336.14,101.37,336.14z"></path><path class="st3" d="M145.14,290.2c-0.27,0-0.49-0.22-0.5-0.49l-0.81-31.78l-3.86-2.6l-1.93,11.66c-0.04,0.27-0.29,0.45-0.57,0.41
			l-3.29-0.51c-0.24-0.04-0.41-0.24-0.42-0.48l-2.86-82.73l-7.8-2.86c-0.26-0.1-0.39-0.38-0.3-0.64c0.1-0.26,0.38-0.39,0.64-0.3
			l8.11,2.98c0.19,0.07,0.32,0.25,0.33,0.45l2.86,82.65l2.39,0.37l1.97-11.93c0.03-0.17,0.14-0.31,0.3-0.38
			c0.16-0.07,0.34-0.05,0.48,0.04l4.72,3.18c0.13,0.09,0.22,0.24,0.22,0.4l0.82,32.03c0.01,0.28-0.21,0.51-0.49,0.51
			C145.15,290.2,145.15,290.2,145.14,290.2z"></path><path class="st3" d="M189.06,329.95c-0.26,0-0.48-0.2-0.5-0.46l-3.08-44.18l-5.61-1.68c-0.2-0.06-0.34-0.24-0.36-0.45l-4.69-81.85
			l-6.3-3.57l0.23,23.78c0,0.27-0.22,0.5-0.49,0.5l-4.86,0.08c0,0-0.01,0-0.01,0c-0.27,0-0.5-0.22-0.5-0.49
			c0-0.28,0.22-0.5,0.49-0.51l4.37-0.07l-0.24-24.15c0-0.18,0.09-0.34,0.25-0.44c0.15-0.09,0.34-0.09,0.5,0l7.3,4.13
			c0.15,0.08,0.24,0.24,0.25,0.41l4.68,81.78l5.61,1.68c0.2,0.06,0.34,0.24,0.36,0.44l3.11,44.53c0.02,0.28-0.19,0.51-0.46,0.53
			C189.08,329.95,189.07,329.95,189.06,329.95z"></path><path class="st3" d="M105.63,353.53c-0.06,0-0.13-0.01-0.19-0.04c-0.25-0.11-0.37-0.4-0.27-0.66l13.81-32.64
			c0.07-0.16,0.22-0.28,0.4-0.3c0.18-0.02,0.35,0.05,0.46,0.19l7.91,10.14l0.43-20.08c0-0.18,0.11-0.35,0.27-0.44l24.46-12.34
			c0.16-0.08,0.34-0.07,0.49,0.02c0.15,0.09,0.24,0.26,0.23,0.43l-0.91,44.81l11.49,8.17c0.23,0.16,0.28,0.47,0.12,0.7
			c-0.16,0.22-0.47,0.28-0.7,0.12l-11.7-8.32c-0.14-0.1-0.21-0.25-0.21-0.42l0.9-44.24l-23.45,11.83l-0.45,21.19
			c0,0.21-0.14,0.4-0.34,0.46c-0.2,0.07-0.42,0-0.55-0.17l-8.25-10.57l-13.47,31.85C106.01,353.42,105.83,353.53,105.63,353.53z"></path><path class="st3" d="M189.13,383.34c-0.18,0-0.35-0.09-0.44-0.26c-0.13-0.24-0.04-0.55,0.2-0.68l17-9.34l5.87-45.42
			c0.03-0.22,0.19-0.39,0.41-0.43c0.22-0.04,0.43,0.07,0.53,0.27l14.57,28.75l26,17.79c0.23,0.16,0.29,0.47,0.13,0.7
			c-0.16,0.23-0.47,0.29-0.7,0.13l-26.11-17.86c-0.07-0.05-0.13-0.11-0.16-0.19l-13.9-27.41l-5.69,44.06
			c-0.02,0.16-0.12,0.3-0.26,0.37l-17.22,9.46C189.3,383.32,189.21,383.34,189.13,383.34z"></path><path class="st3" d="M282.15,396.26c-0.07,0-0.14-0.02-0.21-0.05l-9.64-4.46c-0.25-0.12-0.36-0.41-0.24-0.66
			c0.12-0.25,0.41-0.36,0.66-0.24l9.13,4.22l4.48-14.22c0.06-0.19,0.23-0.33,0.42-0.35l27.59-2.99c0.13-0.02,0.26,0.03,0.37,0.11
			c0.1,0.08,0.17,0.21,0.18,0.34l1.06,10.37c0.03,0.27-0.17,0.52-0.45,0.55c-0.26,0.03-0.52-0.17-0.55-0.45l-1.01-9.87l-26.77,2.9
			l-4.56,14.45c-0.04,0.14-0.14,0.25-0.27,0.31C282.29,396.25,282.22,396.26,282.15,396.26z"></path><path class="st3" d="M354.35,348.88c-0.16,0-0.32-0.08-0.42-0.23c-0.15-0.23-0.08-0.54,0.15-0.69l7.89-5.12l-11.15-15.31
			c-0.07-0.1-0.11-0.22-0.09-0.35l4.91-47.29c0.02-0.22,0.18-0.4,0.4-0.44l7.05-1.42c0.14-0.03,0.29,0.01,0.41,0.1
			c0.11,0.09,0.18,0.23,0.19,0.37l1.33,30.6l18.22-3.87c0.27-0.05,0.54,0.11,0.59,0.39c0.06,0.27-0.12,0.54-0.39,0.59l-18.8,3.99
			c-0.14,0.03-0.29,0-0.41-0.09s-0.19-0.23-0.19-0.37l-1.33-30.61l-6.12,1.24l-4.85,46.73l11.35,15.58
			c0.08,0.11,0.11,0.25,0.09,0.38c-0.02,0.13-0.1,0.25-0.22,0.33l-8.33,5.41C354.53,348.85,354.44,348.88,354.35,348.88z"></path><path class="st3" d="M369.58,363.62c-0.17,0-0.33-0.08-0.42-0.23c-0.15-0.23-0.08-0.54,0.15-0.69l7.04-4.49l1.84-43.54
			c0.01-0.17,0.1-0.32,0.24-0.4l19.73-12.11c0.16-0.1,0.36-0.1,0.52,0c0.16,0.09,0.25,0.27,0.24,0.46l-1.53,26.62l11.17-1.08
			c0.14-0.01,0.28,0.03,0.38,0.12c0.1,0.09,0.16,0.22,0.17,0.36l0.28,15.5l10.9,5.21c0.25,0.12,0.35,0.42,0.24,0.67
			c-0.12,0.25-0.42,0.35-0.67,0.24l-11.18-5.34c-0.17-0.08-0.28-0.25-0.28-0.44l-0.28-15.27l-11.21,1.09
			c-0.15,0.01-0.29-0.04-0.39-0.14c-0.11-0.1-0.16-0.24-0.15-0.39l1.51-26.25l-18.68,11.47l-1.84,43.53
			c-0.01,0.16-0.09,0.31-0.23,0.4l-7.26,4.63C369.77,363.59,369.68,363.62,369.58,363.62z"></path><path class="st3" d="M448.73,316.71c-0.13,0-0.25-0.05-0.35-0.15l-27.4-27.28c-0.11-0.11-0.17-0.27-0.14-0.43l4.76-30.24
			l-9.99-21.04c-0.04-0.09-0.06-0.18-0.04-0.28l5.76-46.32l-8.52,3.2l-9.41,60.73c-0.04,0.27-0.3,0.46-0.57,0.42
			c-0.27-0.04-0.46-0.3-0.42-0.57l9.45-61.02c0.03-0.18,0.15-0.33,0.32-0.39l9.57-3.59c0.17-0.06,0.35-0.03,0.49,0.08
			s0.21,0.28,0.19,0.45l-5.85,47l9.99,21.05c0.04,0.09,0.06,0.19,0.04,0.29l-4.75,30.14l27.22,27.1c0.2,0.2,0.2,0.51,0,0.71
			C448.98,316.67,448.85,316.71,448.73,316.71z"></path><path class="st3" d="M441.82,205.72c-0.08,0-0.16-0.02-0.24-0.06l-3.66-2c-0.14-0.08-0.23-0.21-0.25-0.37l-5.17-35.95l-5.07-1.03
			l-0.17,14.89c0,0.27-0.23,0.49-0.5,0.49c0,0,0,0-0.01,0c-0.28,0-0.5-0.23-0.49-0.51l0.17-15.49c0-0.15,0.07-0.29,0.19-0.38
			c0.12-0.09,0.27-0.13,0.41-0.1l6.01,1.22c0.21,0.04,0.37,0.21,0.4,0.42l5.19,36.05l3.44,1.88c0.24,0.13,0.33,0.44,0.2,0.68
			C442.17,205.62,442,205.72,441.82,205.72z"></path></g></g></svg>